<?xml version="1.0" encoding="utf-8"?>
<!-- Generator: Adobe Illustrator 25.1.0, SVG Export Plug-In . SVG Version: 6.00 Build 0)  -->
<svg version="1.1" id="Calque_1" xmlns="http://www.w3.org/2000/svg" xmlns:xlink="http://www.w3.org/1999/xlink" x="0px" y="0px"
	 viewBox="0 0 886.5 224.7" style="enable-background:new 0 0 886.5 224.7;" xml:space="preserve">
<style type="text/css">
	.st0{fill:#F05E46;}
	.st1{fill:#172540;}
	.st2{fill:#F59C26;}
	.st3{fill:#AC4A07;}
	.st4{fill:#B77821;}
	.st5{fill:#F07927;}
	.st6{fill:#87591B;}
	.st7{fill:#EFF4FA;}
	.st8{enable-background:new    ;}
</style>
<g id="Calque_2_1_">
	<g id="Typogramme_fond_jaune">
		<g id="Sigle">
			<polygon id="Principale_Rouge" class="st0" points="42.5,76.2 114.8,217.8 42.5,217.8 6.7,147.7 			"/>
			<polygon id="Principale_Bleu" class="st1" points="77.6,6 42.5,76.2 198.7,76.2 163.6,6 			"/>
			<polygon id="Principale_Jaune" class="st2" points="198.7,76.2 126.4,217.8 198.6,217.8 234.4,147.7 			"/>
			<polygon id="Secondaire_Gauche" class="st3" points="78.6,147 104.3,76.2 42.5,76.2 			"/>
			<polygon id="Secondaire_Droite" class="st4" points="162.5,147 198.7,76.2 136.5,76.2 			"/>
			<polygon id="Secondaire_Bas" class="st5" points="78.6,147 162.5,147 126.4,217.8 114.8,217.8 			"/>
			<polygon id="Secondaire_Centre" class="st6" points="104.3,76.2 136.5,76.2 162.5,147 78.6,147 			"/>
			<path id="A" class="st7" d="M142.1,42.7l50.4,134.7h-42.6l-6.5-22.2H96.1l-6.5,22.2H46.9L97.3,42.7H142.1z M105,125.8h29.1
				l-14.4-47.4L105,125.8z"/>
			<g id="Contour">
				<path class="st7" d="M163.6,6l70.8,141.7l-35.8,70.1H42.5L6.7,147.7L77.6,6H163.6 M167.3,0H73.9l-1.7,3.3L1.4,145L0,147.7
					l1.4,2.7l35.8,70.1l1.7,3.3h163.5l1.7-3.3l35.8-70.1l1.4-2.7l-1.4-2.7L169,3.3L167.3,0L167.3,0z"/>
			</g>
		</g>
		<g class="st8">
			<path class="st1" d="M364.4,98.5c0,28.3-21.4,45.9-55.4,45.9h-21.7V177h-35.2V52.4h57C343,52.4,364.4,70,364.4,98.5z M328.8,98.5
				c0-11.6-7.3-18.3-21.9-18.3h-19.6v36.5h19.6C321.5,116.7,328.8,109.9,328.8,98.5z"/>
		</g>
		<g class="st8">
			<path class="st1" d="M405,80.4h-38.3V52.4h111.6v27.9h-38.1V177H405V80.4z"/>
			<path class="st1" d="M591.5,149.8V177h-100V52.4h97.7v27.2h-62.8v21h55.4V127h-55.4v22.8H591.5z"/>
			<path class="st1" d="M665.6,143.9h-19.2V177h-35.2V52.4h57c34,0,55.4,17.6,55.4,46.1c0,18.3-8.9,31.9-24.4,39.3l26.9,39.2h-37.7
				L665.6,143.9z M665.9,80.2h-19.6v36.5h19.6c14.6,0,21.9-6.8,21.9-18.2C687.8,87,680.5,80.2,665.9,80.2z"/>
			<path class="st1" d="M736.4,114.7c0-37.4,29.4-64.8,69.2-64.8s69.2,27.4,69.2,64.8c0,37.4-29.4,64.8-69.2,64.8
				S736.4,152.1,736.4,114.7z M839.3,114.7c0-21.5-14.8-35.6-33.6-35.6S772,93.2,772,114.7c0,21.5,14.8,35.6,33.6,35.6
				S839.3,136.3,839.3,114.7z"/>
		</g>
	</g>
</g>
</svg>
